<svg t="1644138954783" class="icon" viewBox="0 0 1025 1024" version="1.1" xmlns="http://www.w3.org/2000/svg" p-id="6801" width="200" height="200"><path d="M960 288 736 64 800 0 1024 224zM896 352 864 704C576 704 160 1024 160 1024L106.88 970.88 380.544 697.216C391.52 701.568 403.456 704 416 704 469.024 704 512 661.024 512 608 512 554.976 469.024 512 416 512 362.976 512 320 554.976 320 608 320 620.544 322.432 632.48 326.784 643.456L53.12 917.12 0 864C0 864 320 448 320 160L672 128 896 352Z" p-id="6802"></path></svg>