<svg t="1644140371670" class="icon" viewBox="0 0 1109 1024" version="1.1" xmlns="http://www.w3.org/2000/svg" p-id="1698" width="200" height="200"><path d="M851.46707823 403.37053469a40.7360494 40.7360494 0 0 0-27.15736585 10.86294672l-247.4036072-172.1777024a39.92132842 39.92132842 0 0 0 2.98731072-15.20812491 40.7360494 40.7360494 0 0 0-81.47209882 0 39.92132842 39.92132842 0 0 0 2.98731006 15.20812491L254.5481677 414.23348141a40.7360494 40.7360494 0 1 0-27.15736648 70.60915211l92.87819266 274.56097304a40.7360494 40.7360494 0 1 0 54.31473298 51.32742227h329.96200024a40.7360494 40.7360494 0 1 0 54.31473235-51.32742227L850.92393113 484.84263352a40.7360494 40.7360494 0 0 0 0-81.47209883z m-117.31982231 353.04576179a40.46447555 40.46447555 0 0 0-30.4162498 28.5152346H374.58372686A40.46447555 40.46447555 0 0 0 344.16747642 756.41629648L249.65984178 478.05329236A40.7360494 40.7360494 0 0 0 267.58370352 444.1065841a47.79696443 47.79696443 0 0 0-1.62944198-10.86294609l249.30462242-173.5355705a40.1929023 40.1929023 0 0 0 47.79696442 0l249.30462242 173.5355705a47.79696443 47.79696443 0 0 0-1.62944197 10.86294609 40.7360494 40.7360494 0 0 0 17.92386173 33.94670826z" fill="#231815" p-id="1699"></path></svg>